<?xml version="1.0" encoding="utf-8"?>
<svg enable-background="new 0 0 1024 1024" id="Layer_1" version="1.1" viewBox="0 0 1024 1024" width="100%" x="0px" xml:space="preserve" xmlns="http://www.w3.org/2000/svg" xmlns:xlink="http://www.w3.org/1999/xlink" y="0px">
<path d=" M452.000000,1025.000000   C301.333344,1025.000000 151.166672,1025.000000 1.000000,1025.000000   C1.000000,683.666687 1.000000,342.333344 1.000000,1.000000   C342.333344,1.000000 683.666687,1.000000 1025.000000,1.000000   C1025.000000,342.333344 1025.000000,683.666687 1025.000000,1025.000000   C834.166687,1025.000000 643.333313,1025.000000 452.000000,1025.000000  M761.123169,635.739746   C761.578796,635.778625 762.034485,635.817505 762.819214,636.410889   C773.938477,646.445984 786.855103,651.298584 802.208252,650.791077   C803.768494,650.791077 805.328796,650.791077 807.053711,650.791077   C807.053711,648.600342 807.053589,646.778381 807.053711,644.956482   C807.056519,564.828491 807.059570,484.700439 807.062378,404.572418   C807.062927,388.580109 807.093079,372.587616 807.010986,356.595734   C807.003845,355.200256 808.286804,352.417267 803.839844,353.009186   C794.864197,352.992828 785.875732,352.672943 776.916565,353.049316   C768.679810,353.395325 760.749146,355.165985 754.271973,362.045410   C745.936768,368.172791 738.105286,374.791718 732.282959,384.292572   C728.847168,390.521667 725.411377,396.750793 721.575928,403.171936   C721.280212,403.352875 721.179626,403.610168 721.040161,404.437347   C720.988892,404.612030 720.937622,404.786713 720.282959,405.306305   C716.812195,411.170258 713.341370,417.034180 709.261658,423.249298   C705.841553,430.185760 702.421509,437.122223 698.945496,444.783112   C695.241028,452.508789 691.536499,460.234436 687.229858,468.308563   C685.459534,472.167297 683.689209,476.026031 681.301208,480.232117   C677.253357,488.156982 673.205566,496.081848 668.997681,504.717621   C667.329102,508.140015 665.660583,511.562408 663.330688,514.755371   C659.144531,506.604950 655.071655,498.393463 650.726196,490.328857   C648.421631,486.051697 645.643799,482.029541 643.005188,477.168671   C637.368896,467.107117 631.732605,457.045593 625.783875,446.335632   C621.466492,438.228149 617.149170,430.120697 612.748779,421.310608   C607.873840,412.190491 602.967773,403.086792 598.131653,393.946136   C591.673096,381.739136 585.854187,369.004730 571.315125,363.997925   C569.483398,363.367126 567.710449,362.286377 566.196350,361.060699   C559.426697,355.580597 551.658325,353.469482 542.593811,353.113129   C541.434753,353.051727 540.275696,352.936554 539.116638,352.936737   C498.175903,352.943024 457.235138,352.953308 416.294403,352.980957   C407.147339,352.987152 398.000366,353.059631 388.129517,353.416138   C387.177704,353.617737 386.235077,353.906952 385.272705,354.007904   C369.345215,355.678864 355.536926,362.371674 342.185181,371.916656   C339.248230,374.186157 336.228821,376.357574 333.389679,378.743469   C324.766541,385.989746 317.913788,394.405823 315.565796,406.149109   C315.273407,406.341156 315.164337,406.608093 315.090546,407.615051   C315.031189,408.065308 314.971832,408.515533 314.327271,409.407196   C313.031067,413.317627 312.015594,417.349182 310.389374,421.117188   C303.800629,436.383667 304.547302,452.326508 305.365234,468.859497   C323.614075,468.859497 341.546631,468.906219 359.476654,468.713837   C360.323608,468.704742 361.801178,466.607849 361.866394,465.421783   C362.112427,460.946533 361.895905,456.445862 361.955597,451.233734   C361.921326,450.508087 361.887054,449.782410 361.976501,448.261017   C362.020935,447.188568 362.065338,446.116150 362.669342,444.598602   C361.717316,436.614471 365.289795,430.183533 370.667145,425.075684   C375.222260,420.748901 380.841431,417.542297 386.725159,413.660431   C387.801208,410.337036 390.213867,409.528229 393.423706,409.923828   C394.883728,410.103729 396.391144,409.899292 398.834991,409.992371   C432.492065,409.947144 466.149170,409.901886 500.756256,409.971375   C504.548401,409.980988 508.373779,409.699860 512.118103,410.128021   C513.879333,410.329437 515.484558,411.894775 517.032898,413.806427   C517.012329,490.820312 516.986633,567.834167 517.013733,644.848083   C517.014221,646.168396 517.652161,647.488464 518.928955,648.858643   C524.907104,648.790894 531.203735,649.916260 536.800964,648.421814   C551.100342,644.603882 560.564880,634.326538 568.003113,622.006653   C568.003113,622.006653 568.024109,622.021179 568.671814,621.729065   C570.421326,616.845459 572.170776,611.961914 573.971497,606.152710   C573.895142,602.765198 573.818787,599.377686 573.867126,595.162659   C573.893311,593.768127 573.919495,592.373596 574.483032,590.386841   C574.591309,587.915955 574.699524,585.445129 574.924561,582.046631   C574.927734,547.628418 574.910583,513.210144 574.980591,478.792114   C574.985168,476.550110 575.658936,474.309479 576.667358,472.318909   C577.168518,473.130035 577.712708,473.917999 578.164001,474.755920   C581.811523,481.527588 585.441650,488.308594 589.086243,495.853577   C593.069641,503.747803 597.053040,511.642029 601.073547,519.483276   C601.073547,519.483276 601.016357,519.453064 600.984253,520.191895   C601.304016,520.515259 601.623840,520.838623 601.938843,521.039795   C601.938843,521.039795 601.816589,521.044983 602.030823,521.516785   C602.317017,521.676514 602.603210,521.836304 603.184448,522.645081   C606.276367,528.800232 609.368225,534.955322 612.418213,541.393799   C612.504028,541.604492 612.660645,541.708008 612.787903,541.995300   C612.787903,541.995300 613.078552,542.096436 613.110229,542.864014   C615.770508,549.093201 618.223877,555.422302 621.163757,561.516602   C623.129700,565.591919 625.787231,569.333557 628.322876,573.852966   C633.424988,582.494995 641.868835,586.970398 650.788269,589.660767   C656.236755,591.304260 662.592468,590.191162 668.522705,589.920471   C675.476868,589.602905 681.708374,587.306335 686.692078,581.751404   C686.692078,581.751404 686.823914,581.505005 687.354187,581.192139   C688.517273,580.126099 689.680359,579.059998 691.154053,577.381104   C694.139099,572.942078 697.124146,568.503113 700.654114,563.629944   C703.743225,557.093079 706.832336,550.556213 710.232910,543.377258   C714.214478,534.968079 718.196106,526.558960 722.655518,517.950439   C722.756287,517.641113 722.857056,517.331787 723.062317,516.613892   C723.062317,516.613892 723.111877,516.195068 723.731628,515.825684   C725.889587,511.255035 728.047546,506.684387 730.675171,501.940033   C730.763367,501.640747 730.851501,501.341461 731.046509,500.614471   C731.046509,500.614471 731.133362,500.182220 731.767761,499.835297   C734.224854,494.608765 736.682007,489.382233 739.765930,483.801147   C741.619507,479.821838 743.473083,475.842529 746.152771,471.995361   C746.454163,473.672394 747.033875,475.352417 747.015686,477.025970   C746.696960,506.388580 746.267273,535.749939 745.948975,565.112488   C745.829895,576.097168 746.026550,587.085266 745.906921,598.069885   C745.808350,607.117310 748.741821,615.234863 753.034729,623.743286   C753.373962,624.334717 753.713196,624.926147 754.083984,625.467896   C754.083984,625.467896 754.029297,625.446350 753.991577,626.257080   C755.967346,628.892456 757.943054,631.527832 759.927673,634.060242   C759.927673,634.060242 759.824585,634.051819 759.993835,634.596130   C760.306580,634.793640 760.619324,634.991150 760.929077,635.090149   C760.929077,635.090149 760.830627,635.093811 761.123169,635.739746  M494.564331,479.241333   C492.910614,479.147034 491.256927,478.970520 489.603210,478.970398   C427.694000,478.966095 365.784790,478.961761 303.875580,478.993713   C265.601593,479.013458 227.327606,479.091644 188.316620,479.363007   C183.728104,480.573761 178.766861,481.048981 174.627731,483.146484   C165.676529,487.682587 156.981262,493.084351 151.921432,502.141388   C148.918518,507.516571 147.037552,513.576599 145.137741,519.484924   C144.224380,522.325317 145.732956,523.972595 149.162918,523.957336   C181.781448,523.812134 214.400558,523.794739 247.948135,523.850464   C266.307434,523.820801 284.666748,523.791138 303.953583,523.877014   C327.307251,523.840515 350.660889,523.804016 374.943604,523.882690   C401.558319,523.931946 428.174103,524.107361 454.786591,523.886353   C458.528961,523.855225 462.255219,521.884949 466.674438,520.583557   C466.931396,520.160889 467.114166,519.445129 467.456207,519.358582   C475.203827,517.397705 480.286804,512.002319 485.240448,505.365997   C491.031281,497.912750 494.815155,489.695892 494.564331,479.241333  M360.135162,535.174561   C344.754791,535.213501 329.374451,535.252441 313.115997,535.164429   C310.750824,535.175232 308.385681,535.186096 305.307373,535.633911   C305.211517,536.120728 305.032043,536.607544 305.031738,537.094421   C305.008850,573.514038 304.990021,609.933594 305.036621,646.353149   C305.038116,647.513306 305.723236,648.672546 307.008423,649.924316   C314.780396,650.240784 322.214630,649.514954 329.740753,646.710754   C348.881378,639.579041 363.127380,619.846436 361.869141,600.245667   C361.832184,599.498535 361.795227,598.751343 361.878967,597.083740   C361.841583,593.051453 361.804230,589.019226 361.875946,584.057373   C361.817169,568.016663 361.758362,551.976013 361.650177,535.597778   C361.522949,535.372070 361.330688,535.274719 360.135162,535.174561  z" fill="none" opacity="1.000000" stroke="none"/>
<path d=" M517.160522,412.842072   C515.484558,411.894775 513.879333,410.329437 512.118103,410.128021   C508.373779,409.699860 504.548401,409.980988 500.067932,409.784485   C498.908447,409.412537 498.437225,409.227509 497.605347,408.846741   C493.127319,408.432434 488.983826,407.816193 484.898499,408.084869   C478.101501,408.531952 472.250031,407.915253 470.127808,400.012848   C469.931488,399.281952 469.125427,398.716400 468.607666,398.069977   C460.456665,387.894104 452.298492,377.723907 444.160156,367.537903   C441.010773,363.596069 438.245758,359.486633 439.400146,354.018494   C453.565826,353.979492 467.259186,353.971832 480.837708,354.237793   C477.186768,358.135193 480.748596,358.921021 482.980011,360.430939   C486.472748,362.794281 490.288391,364.929810 493.101715,367.964325   C495.139191,370.162048 495.215576,374.108795 497.134796,376.497620   C504.227325,385.325623 510.735718,394.646759 522.767578,398.093048   C534.841858,401.551483 546.796448,405.775970 556.456848,414.487915   C557.380371,415.320740 558.897705,415.468781 560.095947,416.027771   C566.527527,419.028168 573.405823,421.359222 579.271179,425.224365   C591.165894,433.062775 602.552979,441.677917 614.062805,450.091248   C620.015198,454.442291 624.519104,453.379730 626.096313,446.984039   C631.732605,457.045593 637.368896,467.107117 643.042480,477.925171   C643.613342,480.584167 644.011108,482.537964 644.706299,484.379456   C646.678894,489.605286 642.287781,495.611847 637.214233,493.598694   C630.453857,490.916199 623.991455,487.074982 618.064209,482.809937   C611.530090,478.108185 605.975037,472.064270 599.565430,467.165009   C594.311707,463.149231 588.645264,459.533051 582.758179,456.531036   C578.143066,454.177582 573.253052,450.606171 567.304504,454.034546   C560.952942,446.280548 555.370178,438.214172 548.597107,431.316650   C540.182617,422.747620 530.216980,416.134003 517.945923,413.474884   C517.607239,413.145172 517.392761,412.981964 517.160522,412.842072  z" fill="#000000" opacity="1.000000" stroke="none"/>
<path d=" M567.545166,454.240723   C573.253052,450.606171 578.143066,454.177582 582.758179,456.531036   C588.645264,459.533051 594.311707,463.149231 599.565430,467.165009   C605.975037,472.064270 611.530090,478.108185 618.064209,482.809937   C623.991455,487.074982 630.453857,490.916199 637.214233,493.598694   C642.287781,495.611847 646.678894,489.605286 644.706299,484.379456   C644.011108,482.537964 643.613342,480.584167 643.079712,478.286987   C645.643799,482.029541 648.421631,486.051697 650.726196,490.328857   C655.071655,498.393463 659.144531,506.604950 663.687866,515.253113   C669.388306,531.734924 678.099243,545.731995 689.736328,557.800842   C692.445374,560.610352 696.612732,562.013733 700.109131,564.064087   C697.124146,568.503113 694.139099,572.942078 690.648010,577.732544   C689.035950,579.224243 687.929932,580.364624 686.823914,581.505005   C686.823914,581.505005 686.692078,581.751404 686.191650,581.586731   C678.240173,578.589050 671.275513,575.397522 665.299744,569.518860   C660.223206,564.524780 653.141357,561.626282 647.249878,557.379944   C644.194458,555.177734 640.831543,552.522461 639.287231,549.273438   C635.171936,540.615540 629.501282,533.681091 621.251465,528.818115   C620.583862,528.424622 620.223450,527.539490 619.649475,526.952026   C617.635437,524.890564 615.702209,522.729675 613.526184,520.852539   C611.270569,518.906738 608.871887,517.080261 606.345093,515.508179   C603.734985,513.884338 600.895569,512.629333 597.935791,510.980652   C594.835754,505.527771 591.956421,500.307251 589.077087,495.086731   C585.441650,488.308594 581.811523,481.527588 578.164001,474.755920   C577.712708,473.917999 577.168518,473.130035 576.199219,471.992615   C575.514587,471.413818 575.270386,471.191711 574.949585,470.626709   C572.448792,464.915833 569.997009,459.578278 567.545166,454.240723  z" fill="#000000" opacity="1.000000" stroke="none"/>
<path d=" M361.766846,584.986938   C361.804230,589.019226 361.841583,593.051453 361.558228,597.369812   C360.317444,596.575867 359.397400,595.495850 357.426331,593.182068   C356.662750,596.068909 356.192749,597.845703 355.722778,599.622559   C357.740570,600.078247 359.758331,600.533936 361.776093,600.989685   C363.127380,619.846436 348.881378,639.579041 329.740753,646.710754   C322.214630,649.514954 314.780396,650.240784 306.522003,649.422546   C306.030548,611.012817 306.025513,573.104919 306.020508,535.196960   C308.385681,535.186096 310.750824,535.175232 313.401459,535.510315   C308.107452,540.078857 306.525421,545.784668 306.934143,552.553589   C307.331146,559.127563 307.747131,559.654602 314.558319,560.076965   C317.117432,560.235657 320.129425,560.567688 322.065399,561.997803   C330.201752,568.008484 337.890106,574.623047 345.983307,580.695557   C350.554657,584.125671 355.373169,587.757812 361.766846,584.986938  z" fill="#000000" opacity="1.000000" stroke="none"/>
<path d=" M709.870605,422.898132   C713.341370,417.034180 716.812195,411.170258 720.872192,405.318390   C725.867188,409.525085 730.269897,413.723022 734.679749,417.913452   C739.828186,422.805664 744.605164,428.186493 750.219360,432.468994   C759.710327,439.708679 770.468384,445.132935 776.920532,456.125549   C781.203796,463.423157 786.947876,469.989258 792.747559,476.222687   C796.098877,479.824646 800.859131,482.115784 805.056396,485.457458   C805.076782,490.282043 805.026001,494.646057 804.793213,499.379028   C804.184448,507.262238 803.757690,514.776489 803.330872,522.290771   C802.608643,522.470337 801.886353,522.649902 801.164062,522.829529   C799.343750,520.442688 797.588989,518.002197 795.687988,515.681458   C792.691895,512.023804 790.294128,507.107971 786.413147,505.088043   C775.066467,499.182587 767.112183,489.813812 758.514160,480.937622   C755.555664,477.883362 751.613281,475.782166 748.022217,472.959290   C747.618774,471.528442 747.313477,470.383881 746.904785,468.900787   C743.175781,465.514984 739.376099,462.649536 735.962830,459.380585   C729.788452,453.467346 723.731201,447.421387 717.840332,441.226044   C713.006042,436.141846 708.625244,430.699615 709.870605,422.898132  z" fill="#000000" opacity="1.000000" stroke="none"/>
<path d=" M625.940063,446.659851   C624.519104,453.379730 620.015198,454.442291 614.062805,450.091248   C602.552979,441.677917 591.165894,433.062775 579.271179,425.224365   C573.405823,421.359222 566.527527,419.028168 560.095947,416.027771   C558.897705,415.468781 557.380371,415.320740 556.456848,414.487915   C546.796448,405.775970 534.841858,401.551483 522.767578,398.093048   C510.735718,394.646759 504.227325,385.325623 497.134796,376.497620   C495.215576,374.108795 495.139191,370.162048 493.101715,367.964325   C490.288391,364.929810 486.472748,362.794281 482.980011,360.430939   C480.748596,358.921021 477.186768,358.135193 481.311249,354.210876   C495.917908,353.927246 509.936249,353.944183 524.004700,354.322754   C526.803406,360.116638 529.545715,365.552002 532.312439,370.974976   C532.533997,371.409302 532.856079,371.850952 533.244934,372.132477   C539.286682,376.505798 545.309937,380.906158 551.413635,385.191956   C557.619385,389.549469 563.913696,393.780884 570.159851,398.081055   C575.442322,401.717682 580.694824,405.398071 585.991333,409.014008   C590.774475,412.279480 595.716248,415.325623 600.369019,418.764771   C604.171997,421.575684 608.000183,423.512054 612.831787,422.013245   C617.149170,430.120697 621.466492,438.228149 625.940063,446.659851  z" fill="#000000" opacity="1.000000" stroke="none"/>
<path d=" M374.014557,523.767517   C350.660889,523.804016 327.307251,523.840515 303.483765,523.433716   C302.022766,520.842102 301.375977,518.426025 299.961182,516.607300   C297.735687,513.746399 295.158600,511.098450 292.425293,508.709320   C289.373169,506.041534 286.234558,503.280090 282.684509,501.413544   C274.614563,497.170410 266.065430,493.811523 258.141266,489.332214   C255.153488,487.643280 253.353485,483.853149 251.411911,481.019409   C252.878189,481.013153 253.944565,481.008423 255.478363,481.005737   C276.630920,481.006836 297.316071,481.005859 318.157532,481.300354   C322.843201,484.293213 327.060669,488.145813 331.961029,489.468811   C346.004395,493.260254 355.508026,502.955383 364.974945,512.861206   C368.229156,516.266296 371.014801,520.119202 374.014557,523.767517  z" fill="#000000" opacity="1.000000" stroke="none"/>
<path d=" M374.479065,523.825073   C371.014801,520.119202 368.229156,516.266296 364.974945,512.861206   C355.508026,502.955383 346.004395,493.260254 331.961029,489.468811   C327.060669,488.145813 322.843201,484.293213 318.406921,481.297791   C318.500000,480.999725 318.998779,480.994629 319.467529,480.999634   C342.621765,481.002258 365.307220,480.999908 388.043152,481.357880   C388.559174,482.567322 388.807556,483.766937 389.524139,484.210785   C395.984650,488.213074 402.665527,491.872528 409.011444,496.043762   C417.285156,501.482086 425.583344,506.948944 433.372345,513.041138   C441.751129,519.594543 450.211090,524.152771 461.192871,520.201782   C462.543518,519.715820 464.378448,520.575928 465.988953,520.812256   C462.255219,521.884949 458.528961,523.855225 454.786591,523.886353   C428.174103,524.107361 401.558319,523.931946 374.479065,523.825073  z" fill="#000000" opacity="1.000000" stroke="none"/>
<path d=" M255.010956,481.003662   C253.944565,481.008423 252.878189,481.013153 250.941895,481.012756   C234.124557,481.007751 218.175980,480.915497 202.230927,481.110535   C199.916046,481.138855 197.617981,482.542480 195.312134,483.309692   C196.853516,485.501770 198.371231,487.711243 199.959106,489.869049   C200.229385,490.236298 200.784714,490.416168 201.234924,490.625397   C216.657364,497.792938 229.465988,508.845306 242.985168,518.827881   C244.638000,520.048279 245.689392,522.083130 247.019501,523.740601   C214.400558,523.794739 181.781448,523.812134 149.162918,523.957336   C145.732956,523.972595 144.224380,522.325317 145.137741,519.484924   C147.037552,513.576599 148.918518,507.516571 151.921432,502.141388   C156.981262,493.084351 165.676529,487.682587 174.627731,483.146484   C178.766861,481.048981 183.728104,480.573761 189.015152,479.500000   C191.533218,479.711365 193.352493,479.843445 195.172302,479.851196   C215.114578,479.935699 235.056900,480.000763 255.002319,480.304260   C255.005417,480.537384 255.010956,481.003662 255.010956,481.003662  z" fill="#000000" opacity="1.000000" stroke="none"/>
<path d=" M574.998535,471.000031   C575.270386,471.191711 575.514587,471.413818 575.876221,471.867279   C575.658936,474.309479 574.985168,476.550110 574.980591,478.792114   C574.910583,513.210144 574.927734,547.628418 574.667297,582.508728   C574.410034,582.970825 574.012268,582.964111 574.012085,582.508240   C575.294006,574.750122 572.590454,569.597412 565.810120,566.499207   C563.122864,565.271301 560.415588,563.970520 557.998169,562.297363   C554.758240,560.054932 550.823914,558.012512 548.879272,554.845581   C541.720520,543.187378 530.107666,537.489380 519.002075,530.548523   C518.707520,526.766296 518.413391,523.433105 518.086914,519.625977   C518.065857,508.098358 518.077148,497.044647 518.479492,485.998413   C522.393677,487.650604 526.317322,488.766785 529.347473,491.062439   C534.054565,494.628479 537.935181,499.275574 542.587952,502.926941   C545.632812,505.316437 549.685852,506.398895 552.818970,508.703430   C557.868225,512.417419 562.000854,517.793274 567.503479,520.360535   C573.211975,523.023804 573.080750,526.755798 573.037292,531.471436   C572.932007,542.892456 573.003113,554.315125 573.003113,565.737122   C573.334351,565.736267 573.665649,565.735413 573.996887,565.734497   C573.996887,548.823853 573.996887,531.913208 574.000854,514.533752   C574.038147,502.644073 574.013794,491.222565 574.144653,479.802826   C574.178284,476.865692 574.700684,473.934143 574.998535,471.000031  z" fill="#000000" opacity="1.000000" stroke="none"/>
<path d=" M397.877045,409.869171   C396.391144,409.899292 394.883728,410.103729 393.423706,409.923828   C390.213867,409.528229 387.801208,410.337036 386.200684,413.510376   C382.434357,412.291321 378.829681,411.801300 376.021088,410.041107   C368.634430,405.411774 361.518188,400.333862 354.472595,395.190308   C352.841675,393.999664 351.183594,391.975952 350.818542,390.088013   C349.806396,384.853058 347.546387,381.118439 342.304108,380.545135   C342.527252,377.256683 342.710999,374.549133 342.894714,371.841553   C355.536926,362.371674 369.345215,355.678864 385.272705,354.007904   C386.235077,353.906952 387.177704,353.617737 388.822479,353.522583   C392.982300,353.766388 396.449158,353.903748 399.571564,354.219482   C397.422302,354.624695 395.529083,354.583008 393.833405,355.141327   C391.291199,355.978455 387.273560,356.769775 386.795288,358.422943   C386.037231,361.043304 386.665771,365.441101 388.507751,367.179382   C394.038849,372.399170 394.501251,381.601562 402.560333,384.650940   C403.056732,384.838776 403.359009,385.679108 403.643066,386.268158   C410.471771,400.429810 420.810272,408.975281 437.459045,408.057281   C444.265259,407.681976 451.111938,407.903625 457.936310,408.043762   C462.225800,408.131836 466.508026,408.573029 470.338348,408.878052   C448.317871,408.902588 426.752441,408.874329 405.187378,408.949432   C402.749542,408.957947 400.313782,409.548523 397.877045,409.869171  z" fill="#000000" opacity="1.000000" stroke="none"/>
<path d=" M247.483810,523.795532   C245.689392,522.083130 244.638000,520.048279 242.985168,518.827881   C229.465988,508.845306 216.657364,497.792938 201.234924,490.625397   C200.784714,490.416168 200.229385,490.236298 199.959106,489.869049   C198.371231,487.711243 196.853516,485.501770 195.312134,483.309692   C197.617981,482.542480 199.916046,481.138855 202.230927,481.110535   C218.175980,480.915497 234.124557,481.007751 250.542007,481.014221   C253.353485,483.853149 255.153488,487.643280 258.141266,489.332214   C266.065430,493.811523 274.614563,497.170410 282.684509,501.413544   C286.234558,503.280090 289.373169,506.041534 292.425293,508.709320   C295.158600,511.098450 297.735687,513.746399 299.961182,516.607300   C301.375977,518.426025 302.022766,520.842102 303.019958,523.375854   C284.666748,523.791138 266.307434,523.820801 247.483810,523.795532  z" fill="#000000" opacity="1.000000" stroke="none"/>
<path d=" M342.539948,371.879089   C342.710999,374.549133 342.527252,377.256683 342.304108,380.545135   C347.546387,381.118439 349.806396,384.853058 350.818542,390.088013   C351.183594,391.975952 352.841675,393.999664 354.472595,395.190308   C361.518188,400.333862 368.634430,405.411774 376.021088,410.041107   C378.829681,411.801300 382.434357,412.291321 385.832947,413.600128   C380.841431,417.542297 375.222260,420.748901 370.667145,425.075684   C365.289795,430.183533 361.717316,436.614471 362.047974,444.906036   C358.948425,446.401550 356.806549,446.959198 354.127411,444.931244   C347.102386,439.613800 339.500366,435.040283 332.625397,429.548065   C325.496735,423.853149 315.925354,420.009827 314.912476,408.965790   C314.971832,408.515533 315.031189,408.065308 315.303894,407.127960   C315.697266,406.427887 315.850494,406.197113 315.976898,405.948486   C317.913788,394.405823 324.766541,385.989746 333.389679,378.743469   C336.228821,376.357574 339.248230,374.186157 342.539948,371.879089  z" fill="#000000" opacity="1.000000" stroke="none"/>
<path d=" M804.985229,484.996887   C800.859131,482.115784 796.098877,479.824646 792.747559,476.222687   C786.947876,469.989258 781.203796,463.423157 776.920532,456.125549   C770.468384,445.132935 759.710327,439.708679 750.219360,432.468994   C744.605164,428.186493 739.828186,422.805664 734.679749,417.913452   C730.269897,413.723022 725.867188,409.525085 721.173828,405.145935   C720.937622,404.786713 720.988892,404.612030 721.294556,404.045654   C721.722412,403.449127 721.864624,403.224426 721.975586,402.979919   C725.411377,396.750793 728.847168,390.521667 732.946899,384.171722   C738.659363,388.204956 745.530457,391.387177 748.372986,396.717621   C754.098938,407.455261 763.746704,414.046356 771.644897,422.400604   C779.856812,431.086761 789.028381,438.881927 797.993591,446.825928   C799.810547,448.435944 802.579834,448.971100 804.978333,450.466125   C805.026123,462.285919 805.005676,473.641388 804.985229,484.996887  z" fill="#000000" opacity="1.000000" stroke="none"/>
<path d=" M612.790283,421.661926   C608.000183,423.512054 604.171997,421.575684 600.369019,418.764771   C595.716248,415.325623 590.774475,412.279480 585.991333,409.014008   C580.694824,405.398071 575.442322,401.717682 570.159851,398.081055   C563.913696,393.780884 557.619385,389.549469 551.413635,385.191956   C545.309937,380.906158 539.286682,376.505798 533.244934,372.132477   C532.856079,371.850952 532.533997,371.409302 532.312439,370.974976   C529.545715,365.552002 526.803406,360.116638 524.439697,354.295288   C526.558105,353.921570 528.291565,353.936951 530.137085,354.015930   C530.249207,354.079529 530.624878,354.107025 530.624878,354.107025   C530.624878,354.107025 530.972961,353.951904 531.436401,353.919891   C535.630066,353.865814 539.360352,353.843750 543.090576,353.821655   C551.658325,353.469482 559.426697,355.580597 566.196350,361.060699   C567.710449,362.286377 569.483398,363.367126 571.315125,363.997925   C585.854187,369.004730 591.673096,381.739136 598.131653,393.946136   C602.967773,403.086792 607.873840,412.190491 612.790283,421.661926  z" fill="#000000" opacity="1.000000" stroke="none"/>
<path d=" M314.619873,409.186493   C315.925354,420.009827 325.496735,423.853149 332.625397,429.548065   C339.500366,435.040283 347.102386,439.613800 354.127411,444.931244   C356.806549,446.959198 358.948425,446.401550 361.768188,445.128601   C362.065338,446.116150 362.020935,447.188568 361.788330,448.886353   C361.684326,450.326019 361.768463,451.140350 361.852600,451.954712   C361.895905,456.445862 362.112427,460.946533 361.866394,465.421783   C361.801178,466.607849 360.323608,468.704742 359.476654,468.713837   C341.546631,468.906219 323.614075,468.859497 305.365234,468.859497   C304.547302,452.326508 303.800629,436.383667 310.389374,421.117188   C312.015594,417.349182 313.031067,413.317627 314.619873,409.186493  z" fill="#000000" opacity="1.000000" stroke="none"/>
<path d=" M754.953430,361.890503   C760.749146,355.165985 768.679810,353.395325 776.916565,353.049316   C785.875732,352.672943 794.864197,352.992828 804.378601,353.546204   C804.920532,377.057281 804.923706,400.031342 804.589783,422.917511   C799.205872,419.421875 793.976501,416.249268 789.176147,412.523865   C785.966797,410.033264 782.954407,407.052002 780.598511,403.757812   C777.584717,399.543793 775.073425,394.914520 772.792725,390.245789   C769.696899,383.908386 766.467651,377.536591 764.393066,370.839600   C763.267822,367.207275 763.911255,363.522827 758.303284,364.488403   C757.363586,364.650208 756.078796,362.807190 754.953430,361.890503  z" fill="#000000" opacity="1.000000" stroke="none"/>
<path d=" M754.612671,361.967957   C756.078796,362.807190 757.363586,364.650208 758.303284,364.488403   C763.911255,363.522827 763.267822,367.207275 764.393066,370.839600   C766.467651,377.536591 769.696899,383.908386 772.792725,390.245789   C775.073425,394.914520 777.584717,399.543793 780.598511,403.757812   C782.954407,407.052002 785.966797,410.033264 789.176147,412.523865   C793.976501,416.249268 799.205872,419.421875 804.659668,423.381226   C805.014465,432.622467 804.962280,441.312164 804.910156,450.001831   C802.579834,448.971100 799.810547,448.435944 797.993591,446.825928   C789.028381,438.881927 779.856812,431.086761 771.644897,422.400604   C763.746704,414.046356 754.098938,407.455261 748.372986,396.717621   C745.530457,391.387177 738.659363,388.204956 733.247742,384.004883   C738.105286,374.791718 745.936768,368.172791 754.612671,361.967957  z" fill="#000000" opacity="1.000000" stroke="none"/>
<path d=" M598.156433,511.212982   C600.895569,512.629333 603.734985,513.884338 606.345093,515.508179   C608.871887,517.080261 611.270569,518.906738 613.526184,520.852539   C615.702209,522.729675 617.635437,524.890564 619.649475,526.952026   C620.223450,527.539490 620.583862,528.424622 621.251465,528.818115   C629.501282,533.681091 635.171936,540.615540 639.287231,549.273438   C640.831543,552.522461 644.194458,555.177734 647.249878,557.379944   C653.141357,561.626282 660.223206,564.524780 665.299744,569.518860   C671.275513,575.397522 678.240173,578.589050 686.061523,581.637695   C681.708374,587.306335 675.476868,589.602905 668.522705,589.920471   C662.592468,590.191162 656.236755,591.304260 650.788269,589.660767   C641.868835,586.970398 633.424988,582.494995 628.196472,573.147278   C623.072937,562.326538 618.075745,552.211487 613.078552,542.096436   C613.078552,542.096436 612.787903,541.995300 612.595398,541.918701   C612.402893,541.842163 612.133362,541.448425 612.133362,541.448425   C612.133362,541.448425 612.460144,541.110413 612.460083,541.110413   C609.368225,534.955322 606.276367,528.800232 603.005127,522.015930   C602.489380,521.272827 602.152954,521.158936 601.816589,521.044983   C601.816589,521.044983 601.938843,521.039795 602.068115,520.717773   C601.803650,520.081543 601.409973,519.767334 601.016357,519.453064   C601.016357,519.453064 601.073547,519.483276 601.174805,519.107178   C600.236145,516.225037 599.196289,513.718994 598.156433,511.212982  z" fill="#000000" opacity="1.000000" stroke="none"/>
<path d=" M361.821411,584.522156   C355.373169,587.757812 350.554657,584.125671 345.983307,580.695557   C337.890106,574.623047 330.201752,568.008484 322.065399,561.997803   C320.129425,560.567688 317.117432,560.235657 314.558319,560.076965   C307.747131,559.654602 307.331146,559.127563 306.934143,552.553589   C306.525421,545.784668 308.107452,540.078857 313.840515,535.573853   C329.374451,535.252441 344.754791,535.213501 360.699402,535.353516   C361.397614,535.679016 361.542938,535.813293 361.699585,535.935303   C361.758362,551.976013 361.817169,568.016663 361.821411,584.522156  z" fill="#000000" opacity="1.000000" stroke="none"/>
<path d=" M466.331696,520.697876   C464.378448,520.575928 462.543518,519.715820 461.192871,520.201782   C450.211090,524.152771 441.751129,519.594543 433.372345,513.041138   C425.583344,506.948944 417.285156,501.482086 409.011444,496.043762   C402.665527,491.872528 395.984650,488.213074 389.524139,484.210785   C388.807556,483.766937 388.559174,482.567322 388.510742,481.356201   C393.940552,480.981659 398.953247,480.969147 404.438080,480.969360   C411.269806,480.987610 417.629425,480.993195 424.458282,481.000122   C431.961243,481.010742 438.994965,481.019958 446.130005,481.365906   C447.209747,483.780273 447.800873,486.190033 449.242126,487.870728   C452.967773,492.215271 456.416870,498.320282 461.198792,499.817078   C466.208191,501.385132 469.299133,504.272430 472.865906,507.181061   C475.752533,509.535065 478.436798,510.653351 481.419708,507.210968   C482.120667,506.402069 483.706238,506.359772 484.884827,505.964783   C480.286804,512.002319 475.203827,517.397705 467.456207,519.358582   C467.114166,519.445129 466.931396,520.160889 466.331696,520.697876  z" fill="#000000" opacity="1.000000" stroke="none"/>
<path d=" M568.023193,622.023010   C560.564880,634.326538 551.100342,644.603882 536.800964,648.421814   C531.203735,649.916260 524.907104,648.790894 518.463013,648.378784   C518.074524,614.621582 518.151978,581.344177 518.407837,548.062134   C518.586243,548.057495 518.943604,548.055603 518.945557,548.512817   C518.967041,552.648987 518.986511,556.327881 518.998779,560.474670   C518.998474,569.589844 518.897705,578.239624 519.100159,586.882324   C519.142151,588.675110 519.773499,591.182617 521.044067,592.101562   C530.369141,598.846313 539.851562,605.382935 549.444641,611.743530   C553.577026,614.483459 558.082581,616.662964 562.433533,619.070129   C564.276978,620.090088 566.158813,621.040833 568.023193,622.023010  z" fill="#000000" opacity="1.000000" stroke="none"/>
<path d=" M519.005920,560.006775   C518.986511,556.327881 518.967041,552.648987 518.960571,548.039124   C518.975891,541.745300 518.978210,536.382385 518.985962,531.014038   C518.991516,531.008484 519.002441,530.997559 519.002441,530.997559   C530.107666,537.489380 541.720520,543.187378 548.879272,554.845581   C550.823914,558.012512 554.758240,560.054932 557.998169,562.297363   C560.415588,563.970520 563.122864,565.271301 565.810120,566.499207   C572.590454,569.597412 575.294006,574.750122 573.834106,582.846436   C573.752686,586.086731 573.849182,588.532898 573.945679,590.979065   C573.919495,592.373596 573.893311,593.768127 573.398560,595.577698   C565.981873,597.566528 561.362000,594.609985 556.608643,589.496460   C550.839478,583.290100 544.138672,577.611023 536.919800,573.217346   C532.563477,570.565979 528.936401,567.823120 525.718323,563.975708   C524.146240,562.096130 521.284119,561.295654 519.005920,560.006775  z" fill="#000000" opacity="1.000000" stroke="none"/>
<path d=" M518.998779,560.474670   C521.284119,561.295654 524.146240,562.096130 525.718323,563.975708   C528.936401,567.823120 532.563477,570.565979 536.919800,573.217346   C544.138672,577.611023 550.839478,583.290100 556.608643,589.496460   C561.362000,594.609985 565.981873,597.566528 573.336243,595.991455   C573.818787,599.377686 573.895142,602.765198 573.620605,606.731384   C571.521240,612.213745 569.772644,617.117493 568.024109,622.021179   C568.024109,622.021179 568.003113,622.006653 568.013184,622.014832   C566.158813,621.040833 564.276978,620.090088 562.433533,619.070129   C558.082581,616.662964 553.577026,614.483459 549.444641,611.743530   C539.851562,605.382935 530.369141,598.846313 521.044067,592.101562   C519.773499,591.182617 519.142151,588.675110 519.100159,586.882324   C518.897705,578.239624 518.998474,569.589844 518.998779,560.474670  z" fill="#000000" opacity="1.000000" stroke="none"/>
<path d=" M669.157776,504.006714   C673.205566,496.081848 677.253357,488.156982 681.629578,480.482727   C682.731262,483.566498 682.611267,487.334076 684.430420,489.073425   C692.960327,497.228729 699.651611,507.665527 711.473877,511.932678   C715.359802,513.335266 719.232910,514.773254 723.111877,516.195068   C723.111877,516.195068 723.062317,516.613892 722.839844,516.976562   C722.427551,517.585876 722.281006,517.856079 722.177734,518.149780   C718.196106,526.558960 714.214478,534.968079 709.709473,543.683960   C707.867432,543.398254 706.217529,543.127686 705.281372,542.163818   C695.832092,532.435059 686.484131,522.607605 677.143982,512.773438   C674.422363,509.907806 671.816650,506.932007 669.157776,504.006714  z" fill="#000000" opacity="1.000000" stroke="none"/>
<path d=" M709.566162,423.073730   C708.625244,430.699615 713.006042,436.141846 717.840332,441.226044   C723.731201,447.421387 729.788452,453.467346 735.962830,459.380585   C739.376099,462.649536 743.175781,465.514984 746.708252,469.086853   C746.185669,470.362000 745.756165,471.112610 745.326721,471.863220   C743.473083,475.842529 741.619507,479.821838 739.239502,483.671875   C735.223938,482.175323 731.208984,481.497498 728.344177,479.311951   C719.645447,472.675812 711.371521,465.480560 702.973877,458.453156   C699.489502,455.537354 696.680542,452.389862 699.479248,447.349152   C699.907227,446.578369 699.189392,445.171417 699.001465,444.058716   C702.421509,437.122223 705.841553,430.185760 709.566162,423.073730  z" fill="#000000" opacity="1.000000" stroke="none"/>
<path d=" M669.077759,504.362183   C671.816650,506.932007 674.422363,509.907806 677.143982,512.773438   C686.484131,522.607605 695.832092,532.435059 705.281372,542.163818   C706.217529,543.127686 707.867432,543.398254 709.553772,544.005005   C706.832336,550.556213 703.743225,557.093079 700.381592,563.847046   C696.612732,562.013733 692.445374,560.610352 689.736328,557.800842   C678.099243,545.731995 669.388306,531.734924 664.018555,515.367798   C665.660583,511.562408 667.329102,508.140015 669.077759,504.362183  z" fill="#000000" opacity="1.000000" stroke="none"/>
<path d=" M698.973511,444.420898   C699.189392,445.171417 699.907227,446.578369 699.479248,447.349152   C696.680542,452.389862 699.489502,455.537354 702.973877,458.453156   C711.371521,465.480560 719.645447,472.675812 728.344177,479.311951   C731.208984,481.497498 735.223938,482.175323 738.926086,483.849152   C736.682007,489.382233 734.224854,494.608765 731.060425,499.988525   C727.560669,499.641754 724.073669,500.032654 722.094482,498.489624   C712.838440,491.273834 703.922974,483.611359 695.054443,475.914185   C692.368835,473.583282 690.224365,470.628937 687.832031,467.960114   C691.536499,460.234436 695.241028,452.508789 698.973511,444.420898  z" fill="#000000" opacity="1.000000" stroke="none"/>
<path d=" M687.530945,468.134338   C690.224365,470.628937 692.368835,473.583282 695.054443,475.914185   C703.922974,483.611359 712.838440,491.273834 722.094482,498.489624   C724.073669,500.032654 727.560669,499.641754 730.743164,500.161987   C731.133362,500.182220 731.046509,500.614471 730.844727,500.989075   C730.462952,501.593781 730.317139,501.843811 730.205566,502.113770   C728.047546,506.684387 725.889587,511.255035 723.421753,516.010376   C719.232910,514.773254 715.359802,513.335266 711.473877,511.932678   C699.651611,507.665527 692.960327,497.228729 684.430420,489.073425   C682.611267,487.334076 682.731262,483.566498 681.938416,480.309021   C683.689209,476.026031 685.459534,472.167297 687.530945,468.134338  z" fill="#000000" opacity="1.000000" stroke="none"/>
<path d=" M485.062622,505.665405   C483.706238,506.359772 482.120667,506.402069 481.419708,507.210968   C478.436798,510.653351 475.752533,509.535065 472.865906,507.181061   C469.299133,504.272430 466.208191,501.385132 461.198792,499.817078   C456.416870,498.320282 452.967773,492.215271 449.242126,487.870728   C447.800873,486.190033 447.209747,483.780273 446.595428,481.363159   C457.790466,481.017303 468.622040,481.074982 479.451935,480.964355   C482.574310,480.932495 485.691803,480.416229 489.244141,480.089783   C491.407349,480.058258 493.137939,480.059021 494.868500,480.059753   C494.815155,489.695892 491.031281,497.912750 485.062622,505.665405  z" fill="#000000" opacity="1.000000" stroke="none"/>
<path d=" M804.978394,450.466125   C804.962280,441.312164 805.014465,432.622467 804.996704,423.469086   C804.923706,400.031342 804.920532,377.057281 804.822388,353.635223   C808.286804,352.417267 807.003845,355.200256 807.010986,356.595734   C807.093079,372.587616 807.062927,388.580109 807.062378,404.572418   C807.059570,484.700439 807.056519,564.828491 807.053711,644.956482   C807.053589,646.778381 807.053711,648.600342 807.053711,650.791077   C805.328796,650.791077 803.768494,650.791077 802.514526,650.363770   C803.638977,648.893311 805.166138,647.852661 805.169800,646.806702   C805.232361,628.876221 805.106689,610.945068 805.112061,592.550781   C805.135559,581.380188 805.069336,570.673035 805.079224,559.575500   C805.101685,558.130676 805.048096,557.076172 805.064331,555.621826   C805.082703,554.145264 805.031189,553.068420 805.055115,551.528687   C805.078735,533.713806 805.026978,516.361938 804.975159,499.010040   C805.026001,494.646057 805.076782,490.282043 805.056458,485.457458   C805.005676,473.641388 805.026123,462.285919 804.978394,450.466125  z" fill="#000000" opacity="1.000000" stroke="none"/>
<path d=" M805.022339,593.014099   C805.106689,610.945068 805.232361,628.876221 805.169800,646.806702   C805.166138,647.852661 803.638977,648.893311 802.368164,649.953613   C786.855103,651.298584 773.938477,646.445984 762.483032,635.796387   C761.708069,635.152527 761.269348,635.123169 760.830627,635.093811   C760.830627,635.093811 760.929077,635.090149 761.037537,634.756653   C760.705505,634.299377 760.265015,634.175598 759.824585,634.051880   C759.824585,634.051819 759.927673,634.060242 760.079407,633.768982   C758.163879,630.800598 756.096558,628.123474 754.029297,625.446350   C754.029297,625.446350 754.083984,625.467896 754.215332,625.121094   C754.381042,624.510620 754.415405,624.247070 754.782837,624.048340   C760.734009,626.876587 766.405151,629.411316 769.622192,635.463379   C770.436890,636.995972 773.090149,638.089966 775.047913,638.380920   C782.674072,639.514465 790.388855,640.053711 798.013367,641.196228   C802.536499,641.874084 804.067200,640.196106 804.008972,635.884888   C803.883362,626.587341 803.960510,617.287170 803.960815,607.524048   C804.318787,602.378052 804.670593,597.696045 805.022339,593.014099  z" fill="#000000" opacity="1.000000" stroke="none"/>
<path d=" M494.716431,479.650543   C493.137939,480.059021 491.407349,480.058258 488.796509,480.060669   C466.605255,480.063049 445.294220,480.062286 423.517303,480.029236   C416.684998,480.030670 410.318573,480.064392 403.487671,480.062927   C375.013550,480.048004 347.003998,480.068329 318.527313,480.052246   C297.039886,480.034241 276.019562,480.052673 254.999222,480.071106   C235.056900,480.000763 215.114578,479.935699 195.172302,479.851196   C193.352493,479.843445 191.533218,479.711365 189.383652,479.390320   C227.327606,479.091644 265.601593,479.013458 303.875580,478.993713   C365.784790,478.961761 427.694000,478.966095 489.603210,478.970398   C491.256927,478.970520 492.910614,479.147034 494.716431,479.650543  z" fill="#000000" opacity="1.000000" stroke="none"/>
<path d=" M745.739746,471.929291   C745.756165,471.112610 746.185669,470.362000 746.811646,469.425354   C747.313477,470.383881 747.618774,471.528442 747.954590,473.396362   C748.082092,489.079834 748.179077,504.040009 748.192566,519.412720   C748.140442,533.206604 748.171814,546.587952 748.126587,560.436218   C748.800781,581.684448 744.811401,602.838806 752.947815,623.033325   C752.956299,623.026978 752.974426,623.018860 752.974426,623.018860   C748.741821,615.234863 745.808350,607.117310 745.906921,598.069885   C746.026550,587.085266 745.829895,576.097168 745.948975,565.112488   C746.267273,535.749939 746.696960,506.388580 747.015686,477.025970   C747.033875,475.352417 746.454163,473.672394 745.739746,471.929291  z" fill="#000000" opacity="1.000000" stroke="none"/>
<path d=" M518.229492,548.066833   C518.151978,581.344177 518.074524,614.621582 517.994812,648.353760   C517.652161,647.488464 517.014221,646.168396 517.013733,644.848083   C516.986633,567.834167 517.012329,490.820312 517.096680,413.324249   C517.392761,412.981964 517.607239,413.145172 517.924072,413.983643   C518.075012,426.096466 518.105896,437.557373 518.093384,449.482697   C518.062805,461.961700 518.075623,473.976349 518.088501,485.990967   C518.077148,497.044647 518.065857,508.098358 518.055786,520.073364   C518.093384,524.336609 518.129700,527.678467 518.128784,531.485046   C518.137573,537.322083 518.183533,542.694458 518.229492,548.066833  z" fill="#000000" opacity="1.000000" stroke="none"/>
<path d=" M542.842163,353.467407   C539.360352,353.843750 535.630066,353.865814 531.199585,353.908569   C530.499268,353.929260 530.025024,353.952362 530.025024,353.952362   C528.291565,353.936951 526.558105,353.921570 524.389648,353.933655   C509.936249,353.944183 495.917908,353.927246 481.426025,353.937225   C467.259186,353.971832 453.565826,353.979492 438.940308,353.989685   C425.310760,354.008514 412.613373,354.024811 399.916016,354.041138   C396.449158,353.903748 392.982300,353.766388 389.184387,353.365295   C398.000366,353.059631 407.147339,352.987152 416.294403,352.980957   C457.235138,352.953308 498.175903,352.943024 539.116638,352.936737   C540.275696,352.936554 541.434753,353.051727 542.842163,353.467407  z" fill="#000000" opacity="1.000000" stroke="none"/>
<path d=" M305.663940,535.415405   C306.025513,573.104919 306.030548,611.012817 306.062622,649.376465   C305.723236,648.672546 305.038116,647.513306 305.036621,646.353149   C304.990021,609.933594 305.008850,573.514038 305.031738,537.094421   C305.032043,536.607544 305.211517,536.120728 305.663940,535.415405  z" fill="#000000" opacity="1.000000" stroke="none"/>
<path d=" M398.356018,409.930786   C400.313782,409.548523 402.749542,408.957947 405.187378,408.949432   C426.752441,408.874329 448.317871,408.902588 470.828796,408.910797   C480.504974,408.961700 489.235504,409.002106 497.966034,409.042480   C498.437225,409.227509 498.908447,409.412537 499.592957,409.727112   C466.149170,409.901886 432.492065,409.947144 398.356018,409.930786  z" fill="#000000" opacity="1.000000" stroke="none"/>
<path d=" M613.094360,542.480225   C618.075745,552.211487 623.072937,562.326538 628.102661,572.833069   C625.787231,569.333557 623.129700,565.591919 621.163757,561.516602   C618.223877,555.422302 615.770508,549.093201 613.094360,542.480225  z" fill="#000000" opacity="1.000000" stroke="none"/>
<path d=" M597.935791,510.980652   C599.196289,513.718994 600.236145,516.225037 601.156250,519.133667   C597.053040,511.642029 593.069641,503.747803 589.081665,495.470154   C591.956421,500.307251 594.835754,505.527771 597.935791,510.980652  z" fill="#000000" opacity="1.000000" stroke="none"/>
<path d=" M361.822632,600.617676   C359.758331,600.533936 357.740570,600.078247 355.722778,599.622559   C356.192749,597.845703 356.662750,596.068909 357.426331,593.182068   C359.397400,595.495850 360.317444,596.575867 361.497864,597.830078   C361.795227,598.751343 361.832184,599.498535 361.822632,600.617676  z" fill="#000000" opacity="1.000000" stroke="none"/>
<path d=" M568.347961,621.875122   C569.772644,617.117493 571.521240,612.213745 573.595032,607.194214   C572.170776,611.961914 570.421326,616.845459 568.347961,621.875122  z" fill="#000000" opacity="1.000000" stroke="none"/>
<path d=" M754.010437,625.851685   C756.096558,628.123474 758.163879,630.800598 760.074951,633.820435   C757.943054,631.527832 755.967346,628.892456 754.010437,625.851685  z" fill="#000000" opacity="1.000000" stroke="none"/>
<path d=" M574.214355,590.682983   C573.849182,588.532898 573.752686,586.086731 573.834229,583.302368   C574.012268,582.964111 574.410034,582.970825 574.608887,582.972534   C574.699524,585.445129 574.591309,587.915955 574.214355,590.682983  z" fill="#000000" opacity="1.000000" stroke="none"/>
<path d=" M687.089050,581.348572   C687.929932,580.364624 689.035950,579.224243 690.492676,578.038940   C689.680359,579.059998 688.517273,580.126099 687.089050,581.348572  z" fill="#000000" opacity="1.000000" stroke="none"/>
<path d=" M361.904114,451.594238   C361.768463,451.140350 361.684326,450.326019 361.726501,449.284210   C361.887054,449.782410 361.921326,450.508087 361.904114,451.594238  z" fill="#000000" opacity="1.000000" stroke="none"/>
<path d=" M754.449829,623.983459   C754.415405,624.247070 754.381042,624.510620 754.199585,625.145874   C753.713196,624.926147 753.373962,624.334717 753.004578,623.381104   C752.974426,623.018860 752.956299,623.026978 753.251221,623.087280   C753.847351,623.426270 754.148621,623.704834 754.449829,623.983459  z" fill="#000000" opacity="1.000000" stroke="none"/>
<path d=" M721.775757,403.075928   C721.864624,403.224426 721.722412,403.449127 721.411499,403.798889   C721.179626,403.610168 721.280212,403.352875 721.775757,403.075928  z" fill="#000000" opacity="1.000000" stroke="none"/>
<path d=" M601.923706,521.280884   C602.152954,521.158936 602.489380,521.272827 602.857544,521.691406   C602.603210,521.836304 602.317017,521.676514 601.923706,521.280884  z" fill="#000000" opacity="1.000000" stroke="none"/>
<path d=" M722.416626,518.050110   C722.281006,517.856079 722.427551,517.585876 722.787598,517.180847   C722.857056,517.331787 722.756287,517.641113 722.416626,518.050110  z" fill="#000000" opacity="1.000000" stroke="none"/>
<path d=" M315.771362,406.048798   C315.850494,406.197113 315.697266,406.427887 315.377930,406.795410   C315.164337,406.608093 315.273407,406.341156 315.771362,406.048798  z" fill="#000000" opacity="1.000000" stroke="none"/>
<path d=" M612.439209,541.252075   C612.460144,541.110413 612.133362,541.448425 612.133362,541.448425   C612.133362,541.448425 612.402893,541.842163 612.645508,541.773254   C612.660645,541.708008 612.504028,541.604492 612.439209,541.252075  z" fill="#000000" opacity="1.000000" stroke="none"/>
<path d=" M730.440369,502.026917   C730.317139,501.843811 730.462952,501.593781 730.791321,501.202942   C730.851501,501.341461 730.763367,501.640747 730.440369,502.026917  z" fill="#000000" opacity="1.000000" stroke="none"/>
<path d=" M361.674866,535.766541   C361.542938,535.813293 361.397614,535.679016 361.168518,535.419128   C361.330688,535.274719 361.522949,535.372070 361.674866,535.766541  z" fill="#000000" opacity="1.000000" stroke="none"/>
<path d=" M601.000305,519.822510   C601.409973,519.767334 601.803650,520.081543 602.070435,520.778870   C601.623840,520.838623 601.304016,520.515259 601.000305,519.822510  z" fill="#000000" opacity="1.000000" stroke="none"/>
<path d=" M759.909180,634.323975   C760.265015,634.175598 760.705505,634.299377 761.039062,634.805908   C760.619324,634.991150 760.306580,634.793640 759.909180,634.323975  z" fill="#000000" opacity="1.000000" stroke="none"/>
<path d=" M760.976929,635.416748   C761.269348,635.123169 761.708069,635.152527 762.318481,635.519165   C762.034485,635.817505 761.578796,635.778625 760.976929,635.416748  z" fill="#000000" opacity="1.000000" stroke="none"/>
<path d=" M497.605347,408.846710   C489.235504,409.002106 480.504974,408.961700 471.283997,408.888550   C466.508026,408.573029 462.225800,408.131836 457.936310,408.043762   C451.111938,407.903625 444.265259,407.681976 437.459045,408.057281   C420.810272,408.975281 410.471771,400.429810 403.643066,386.268158   C403.359009,385.679108 403.056732,384.838776 402.560333,384.650940   C394.501251,381.601562 394.038849,372.399170 388.507751,367.179382   C386.665771,365.441101 386.037231,361.043304 386.795288,358.422943   C387.273560,356.769775 391.291199,355.978455 393.833405,355.141327   C395.529083,354.583008 397.422302,354.624695 399.571564,354.219482   C412.613373,354.024811 425.310760,354.008514 438.467957,354.021027   C438.245758,359.486633 441.010773,363.596069 444.160156,367.537903   C452.298492,377.723907 460.456665,387.894104 468.607666,398.069977   C469.125427,398.716400 469.931488,399.281952 470.127808,400.012848   C472.250031,407.915253 478.101501,408.531952 484.898499,408.084869   C488.983826,407.816193 493.127319,408.432434 497.605347,408.846710  z" fill="#000000" opacity="1.000000" stroke="none"/>
<path d=" M518.136719,449.018311   C518.105896,437.557373 518.075012,426.096466 518.066101,414.126770   C530.216980,416.134003 540.182617,422.747620 548.597107,431.316650   C555.370178,438.214172 560.952942,446.280548 567.304565,454.034515   C569.997009,459.578278 572.448792,464.915833 574.949585,470.626709   C574.700684,473.934143 574.178284,476.865692 574.144653,479.802826   C574.013794,491.222565 574.038147,502.644073 573.817993,514.164185   C573.424316,512.294678 573.068481,510.328217 573.038696,508.356812   C572.948120,502.374146 572.977966,496.389587 572.973022,490.405762   C572.971191,488.130066 572.464722,486.426697 569.582642,486.822601   C560.891724,488.016479 555.288452,483.135132 550.013916,477.175720   C547.185730,473.980286 544.073975,470.649353 540.394287,468.679291   C533.946045,465.226929 529.241760,460.497559 525.971191,454.099762   C524.353943,450.936066 522.017334,448.754181 518.136719,449.018311  z" fill="#000000" opacity="1.000000" stroke="none"/>
<path d=" M748.276001,519.000183   C748.179077,504.040009 748.082092,489.079834 748.052734,473.682617   C751.613281,475.782166 755.555664,477.883362 758.514160,480.937622   C767.112183,489.813812 775.066467,499.182587 786.413147,505.088043   C790.294128,507.107971 792.691895,512.023804 795.687988,515.681458   C797.588989,518.002197 799.343750,520.442688 801.164062,522.829529   C801.886353,522.649902 802.608643,522.470337 803.330872,522.290771   C803.757690,514.776489 804.184448,507.262238 804.793213,499.379028   C805.026978,516.361938 805.078735,533.713806 804.897949,551.797791   C804.775085,553.693848 804.884766,554.857727 804.994385,556.021667   C805.048096,557.076172 805.101685,558.130676 804.653137,559.582703   C794.698181,560.649841 788.031433,554.348511 783.245361,548.358276   C778.390991,542.282715 771.447327,538.678955 767.248108,531.431274   C763.861328,525.585815 754.812744,523.020630 748.276001,519.000183  z" fill="#000000" opacity="1.000000" stroke="none"/>
<path d=" M255.002319,480.304260   C276.019562,480.052673 297.039886,480.034241 318.528259,480.278625   C318.996277,480.541382 318.998779,480.994629 318.998779,480.994629   C318.998779,480.994629 318.500000,480.999725 318.250610,481.002319   C297.316071,481.005859 276.630920,481.006836 255.478363,481.005737   C255.010956,481.003662 255.005417,480.537384 255.002319,480.304260  z" fill="#000000" opacity="1.000000" stroke="none"/>
<path d=" M319.467529,480.999634   C318.998779,480.994629 318.996277,480.541382 318.995361,480.315002   C347.003998,480.068329 375.013550,480.048004 403.492859,480.277344   C403.962555,480.526947 403.965942,480.956635 403.965942,480.956635   C398.953247,480.969147 393.940552,480.981659 388.460266,480.995880   C365.307220,480.999908 342.621765,481.002258 319.467529,480.999634  z" fill="#000000" opacity="1.000000" stroke="none"/>
<path d=" M518.093384,449.482697   C522.017334,448.754181 524.353943,450.936066 525.971191,454.099762   C529.241760,460.497559 533.946045,465.226929 540.394287,468.679291   C544.073975,470.649353 547.185730,473.980286 550.013916,477.175720   C555.288452,483.135132 560.891724,488.016479 569.582642,486.822601   C572.464722,486.426697 572.971191,488.130066 572.973022,490.405762   C572.977966,496.389587 572.948120,502.374146 573.038696,508.356812   C573.068481,510.328217 573.424316,512.294678 573.814026,514.632935   C573.996887,531.913208 573.996887,548.823853 573.996887,565.734497   C573.665649,565.735413 573.334351,565.736267 573.003113,565.737122   C573.003113,554.315125 572.932007,542.892456 573.037292,531.471436   C573.080750,526.755798 573.211975,523.023804 567.503479,520.360535   C562.000854,517.793274 557.868225,512.417419 552.818970,508.703430   C549.685852,506.398895 545.632812,505.316437 542.587952,502.926941   C537.935181,499.275574 534.054565,494.628479 529.347473,491.062439   C526.317322,488.766785 522.393677,487.650604 518.479492,485.998413   C518.075623,473.976349 518.062805,461.961700 518.093384,449.482697  z" fill="#000000" opacity="1.000000" stroke="none"/>
<path d=" M518.166016,531.020386   C518.129700,527.678467 518.093384,524.336609 518.088135,520.547302   C518.413391,523.433105 518.707520,526.766296 519.002075,530.548523   C519.002441,530.997559 518.991516,531.008484 518.782471,531.012939   C518.573486,531.017456 518.166016,531.020386 518.166016,531.020386  z" fill="#000000" opacity="1.000000" stroke="none"/>
<path d=" M530.137085,354.015930   C530.025024,353.952362 530.499268,353.929260 530.736084,353.940582   C530.972961,353.951904 530.624878,354.107025 530.624878,354.107025   C530.624878,354.107025 530.249207,354.079529 530.137085,354.015930  z" fill="#000000" opacity="1.000000" stroke="none"/>
<path d=" M423.983215,480.061523   C445.294220,480.062286 466.605255,480.063049 488.363892,480.092957   C485.691803,480.416229 482.574310,480.932495 479.451935,480.964355   C468.622040,481.074982 457.790466,481.017303 446.494080,481.026428   C438.994965,481.019958 431.961243,481.010742 424.457733,480.765808   C423.987915,480.530151 423.983215,480.061523 423.983215,480.061523  z" fill="#000000" opacity="1.000000" stroke="none"/>
<path d=" M423.517303,480.029236   C423.983215,480.061523 423.987915,480.530151 423.988464,480.764465   C417.629425,480.993195 411.269806,480.987610 404.438080,480.969360   C403.965942,480.956635 403.962555,480.526947 403.957367,480.312531   C410.318573,480.064392 416.684998,480.030670 423.517303,480.029236  z" fill="#000000" opacity="1.000000" stroke="none"/>
<path d=" M518.128784,531.485046   C518.166016,531.020386 518.573486,531.017456 518.776978,531.018494   C518.978210,536.382385 518.975891,541.745300 518.958618,547.581909   C518.943604,548.055603 518.586243,548.057495 518.407837,548.062134   C518.183533,542.694458 518.137573,537.322083 518.128784,531.485046  z" fill="#000000" opacity="1.000000" stroke="none"/>
<path d=" M748.192566,519.412720   C754.812744,523.020630 763.861328,525.585815 767.248108,531.431274   C771.447327,538.678955 778.390991,542.282715 783.245361,548.358276   C788.031433,554.348511 794.698181,560.649841 804.577026,559.973022   C805.069336,570.673035 805.135559,581.380188 805.112061,592.550781   C804.670593,597.696045 804.318787,602.378052 803.609863,607.484924   C799.562744,605.169678 795.741211,602.587646 792.212219,599.653748   C786.260315,594.705750 780.921570,588.891113 774.526917,584.641907   C768.368408,580.549622 761.253052,577.858948 754.451172,574.789368   C751.074951,573.265747 749.918579,570.970703 749.886475,567.369629   C749.864380,564.898071 748.801025,562.435791 748.203125,559.969360   C748.171814,546.587952 748.140442,533.206604 748.192566,519.412720  z" fill="#000000" opacity="1.000000" stroke="none"/>
<path d=" M805.064331,555.621826   C804.884766,554.857727 804.775085,553.693848 804.822510,552.260742   C805.031189,553.068420 805.082703,554.145264 805.064331,555.621826  z" fill="#000000" opacity="1.000000" stroke="none"/>
<path d=" M748.126587,560.436218   C748.801025,562.435791 749.864380,564.898071 749.886475,567.369629   C749.918579,570.970703 751.074951,573.265747 754.451172,574.789368   C761.253052,577.858948 768.368408,580.549622 774.526917,584.641907   C780.921570,588.891113 786.260315,594.705750 792.212219,599.653748   C795.741211,602.587646 799.562744,605.169678 803.603699,607.948975   C803.960510,617.287170 803.883362,626.587341 804.008972,635.884888   C804.067200,640.196106 802.536499,641.874084 798.013367,641.196228   C790.388855,640.053711 782.674072,639.514465 775.047913,638.380920   C773.090149,638.089966 770.436890,636.995972 769.622192,635.463379   C766.405151,629.411316 760.734009,626.876587 754.782837,624.048340   C754.148621,623.704834 753.847351,623.426270 753.242737,623.093689   C744.811401,602.838806 748.800781,581.684448 748.126587,560.436218  z" fill="#000000" opacity="1.000000" stroke="none"/>
</svg>